<svg width="23" height="17" viewBox="0 0 23 17" fill="none" xmlns="http://www.w3.org/2000/svg">
<path d="M9.67788 0.0588458C9.27476 0.199471 8.98413 0.602596 8.98413 1.02447C8.98413 1.14635 9.00288 1.29635 9.02163 1.3526C9.05913 1.43697 8.87163 1.8401 7.87788 3.88385L6.69663 6.31197L3.43413 6.33072L0.16226 6.34947L0.0778846 6.4526C-0.0346154 6.59322 -0.0252404 6.74322 0.10601 7.0151C0.227885 7.26822 0.415385 7.41822 0.734135 7.52135L0.93101 7.58697L1.68101 11.8245C2.51538 16.5682 2.45913 16.3245 2.89976 16.6807C3.31226 17.0276 2.68413 16.9995 11.0654 16.9995C19.4466 16.9995 18.8185 17.0276 19.231 16.6807C19.6623 16.3245 19.606 16.5588 20.4498 11.8245L21.1998 7.58697L21.3966 7.52135C21.706 7.41822 21.8935 7.26822 22.0248 7.0151C22.156 6.74322 22.1654 6.59322 22.0529 6.4526L21.9685 6.34947L18.6966 6.33072L15.4341 6.31197L14.2623 3.88385C13.2591 1.82135 13.0904 1.43697 13.1185 1.3526C13.1841 1.18385 13.1654 0.808846 13.0716 0.621346C12.9779 0.424471 12.7716 0.190096 12.5841 0.0963456C12.3966 -0.00677945 12.0591 -0.0255293 11.8248 0.0400957C11.5716 0.105721 11.1873 0.471346 11.1404 0.677596C11.131 0.752596 11.0935 0.818221 11.0748 0.818221C11.056 0.818221 11.0185 0.761971 11.0091 0.677596C10.9623 0.490096 10.5779 0.115096 10.3529 0.0400957C10.1279 -0.0161543 9.88413 -0.0161542 9.67788 0.0588458ZM11.1498 1.41822C11.206 1.62447 11.4591 1.88697 11.6935 1.9901C11.8623 2.0651 11.8716 2.09322 12.9029 4.19322L13.9341 6.31197L12.4998 6.32135C11.7123 6.32135 10.4279 6.32135 9.64038 6.32135L8.20601 6.31197L9.23726 4.19322C10.2498 2.1026 10.2685 2.07447 10.4373 1.99947C10.6623 1.89635 10.9248 1.62447 10.981 1.41822C11.0091 1.33385 11.0373 1.25885 11.056 1.25885C11.0935 1.25885 11.131 1.33385 11.1498 1.41822ZM5.56226 8.44947C5.56226 8.46822 5.59976 8.90885 5.64663 9.4151C5.69351 9.93072 5.73101 10.4088 5.73101 10.4838V10.6245H4.67163H3.61226L3.59351 10.5213C3.56538 10.4088 3.22788 8.46822 3.22788 8.43072C3.21851 8.4026 5.56226 8.41197 5.56226 8.44947ZM10.0341 9.5276V10.6338H8.95601H7.86851L7.84038 10.3995C7.79351 9.95885 7.69038 8.7401 7.69038 8.58072V8.41197H8.86226H10.0341V9.5276ZM14.4591 8.57135C14.4591 8.72135 14.356 9.9776 14.3091 10.3995L14.281 10.6338H13.1935H12.1154V9.5276V8.41197H13.2873H14.4591V8.57135ZM18.931 8.4401C18.931 8.46822 18.5841 10.3995 18.5654 10.5307L18.5466 10.6338H17.4873H16.4279V10.4651C16.4279 10.3807 16.4654 9.88385 16.5123 9.36822C16.5591 8.8526 16.5966 8.43072 16.5966 8.42135C16.5873 8.4026 18.931 8.41197 18.931 8.4401ZM5.95601 12.8088C5.95601 12.8651 5.99351 13.3338 6.04038 13.8401C6.08726 14.3557 6.12476 14.8057 6.12476 14.8432C6.12476 14.9182 6.05913 14.9182 5.24351 14.9182H4.36226L4.18413 13.887C4.08101 13.3151 4.00601 12.8182 4.00601 12.7807C4.00601 12.7151 4.09038 12.7057 4.98101 12.7057H5.95601V12.8088ZM10.0341 13.8213V14.9276L9.13413 14.9182L8.23413 14.9088L8.16851 14.0651C8.12163 13.5963 8.08414 13.1088 8.06538 12.9682L8.03726 12.7245H9.03101H10.0248V13.8213H10.0341ZM14.0841 12.9401C14.0748 13.062 14.0279 13.5588 13.9904 14.037L13.9154 14.9088L13.0154 14.9182L12.1154 14.9276V13.8213V12.7151H13.1091H14.1029L14.0841 12.9401ZM18.1529 12.762C18.1529 12.7901 18.0779 13.287 17.9748 13.8682L17.7966 14.9182H16.9154C16.0998 14.9182 16.0341 14.9182 16.0341 14.8432C16.0341 14.8057 16.0716 14.3463 16.1185 13.8401C16.1654 13.3338 16.2029 12.8651 16.2029 12.8088V12.7151H17.1685C17.9279 12.7151 18.1529 12.7245 18.1529 12.762Z" fill="white"/>
</svg>
