<svg width="23" height="21" viewBox="0 0 23 21" fill="none" xmlns="http://www.w3.org/2000/svg">
<path d="M14.4133 0.0475217C12.6883 0.169397 11.3102 0.460021 10.5321 0.863146C10.0727 1.09752 9.88521 1.26627 9.74459 1.54752L9.62271 1.7819V4.8569C9.62271 7.79127 9.62271 7.94127 9.53834 7.94127C9.49146 7.94127 9.23834 7.91315 8.96646 7.87565C7.35396 7.66002 5.19771 7.66002 3.52896 7.87565C1.60709 8.1194 0.435214 8.59752 0.0883386 9.27252C-0.00541142 9.44127 -0.00541139 9.5069 0.00396361 10.6131C0.0133386 11.935 0.0227136 11.9725 0.369589 12.2913C0.594589 12.4881 1.16646 12.7788 1.59771 12.91L1.90709 13.0038V13.7538C1.90709 14.1663 1.92584 14.5881 1.95396 14.6819C1.98209 14.7756 2.07584 14.935 2.17896 15.0475L2.35709 15.235L2.04771 15.3381C1.61646 15.4788 1.20396 15.76 1.07271 16.0131C0.969589 16.21 0.969589 16.2475 0.969589 17.335C0.969589 18.5725 0.978964 18.6663 1.25084 18.9381C2.02896 19.7444 4.76646 20.2788 7.73834 20.1944C10.729 20.11 12.8196 19.5663 13.3446 18.7319C13.4196 18.61 13.4571 18.4788 13.4665 18.1881L13.4852 17.8131L13.804 17.71C13.9821 17.6538 14.2633 17.5413 14.4321 17.4569L14.7508 17.3163H15.6321C18.454 17.3444 20.9383 16.8569 21.754 16.1256C22.1665 15.76 22.129 16.4538 22.129 8.63502C22.129 4.15377 22.1196 1.6694 22.0821 1.5944C22.0071 1.39752 21.679 1.07877 21.3696 0.900646C20.1602 0.244397 17.104 -0.139978 14.4133 0.0475217ZM17.7321 1.04127C19.1946 1.16315 20.7133 1.51002 21.0977 1.80065C21.1915 1.87565 21.2008 1.8944 21.1446 1.9694C20.9852 2.1569 20.1508 2.44752 19.2508 2.61627C18.2477 2.80377 17.4977 2.86002 15.9602 2.86002C14.4508 2.86002 13.8602 2.8319 12.8008 2.65377C11.7415 2.48502 10.6352 2.13815 10.6352 1.96002C10.6352 1.72565 11.7227 1.36002 12.9696 1.16315C14.3196 0.966271 16.1946 0.910021 17.7321 1.04127ZM11.5165 3.36627C12.004 3.49752 12.9696 3.66627 13.7571 3.76002C14.6008 3.85377 17.4133 3.83502 18.229 3.74127C19.4196 3.59127 20.3852 3.38502 20.8915 3.1694C21.0133 3.12252 21.1258 3.07565 21.1446 3.07565C21.1633 3.07565 21.1821 3.45065 21.1821 3.9569V4.83815L20.9758 4.9694C20.8633 5.0444 20.5727 5.16627 20.3383 5.24127C18.1165 5.95377 13.7946 5.96315 11.4883 5.26002C11.0196 5.1194 10.6915 4.96002 10.6352 4.83815C10.6071 4.7819 10.5883 4.39752 10.5883 3.89127V3.03815L10.8508 3.15065C10.9821 3.19752 11.2915 3.29127 11.5165 3.36627ZM11.5165 6.25377C12.004 6.38502 12.9696 6.55377 13.7571 6.64752C14.479 6.72252 17.2633 6.7319 17.9946 6.64752C19.204 6.51627 20.554 6.23502 20.9477 6.02877C21.0227 5.99127 21.1071 5.96315 21.1352 5.96315C21.1633 5.96315 21.1821 6.26315 21.1821 6.8444V7.72565L20.9758 7.8569C20.8633 7.9319 20.5727 8.05377 20.3383 8.12877C18.1165 8.84127 13.7946 8.85065 11.4883 8.14752C11.0196 8.0069 10.6915 7.84752 10.6352 7.72565C10.6071 7.6694 10.5883 7.28502 10.5883 6.77877V5.92565L10.8508 6.03815C10.9821 6.08502 11.2915 6.17877 11.5165 6.25377ZM8.30084 8.7569C9.76334 8.91627 11.0758 9.22565 11.4696 9.5069C11.5727 9.5819 11.5727 9.5819 11.4883 9.67565C11.3102 9.87252 10.5415 10.1444 9.65084 10.3131C7.64459 10.6975 4.69146 10.6788 2.62896 10.2663C1.72896 10.0881 0.932088 9.77877 0.969589 9.64752C0.997714 9.56315 1.41021 9.3569 1.84146 9.21627C2.55396 8.9819 3.62271 8.80377 4.74771 8.7194C5.44146 8.66315 7.68209 8.69127 8.30084 8.7569ZM21.1727 9.7319L21.1633 10.6225L21.0133 10.7256C20.6196 10.9975 19.4008 11.2975 18.0977 11.4475C17.1602 11.56 14.7602 11.56 13.4758 11.4475C12.9696 11.41 12.5477 11.3631 12.5383 11.3631C12.5383 11.3538 12.529 10.8944 12.5196 10.3506C12.5102 9.47877 12.5196 9.3569 12.5758 9.37565C12.6133 9.38502 12.8758 9.42252 13.1665 9.46002C14.9758 9.70377 17.3946 9.67565 19.1196 9.3944C19.7477 9.29127 20.5821 9.08502 20.8821 8.9444C20.9946 8.89752 21.1071 8.85065 21.1352 8.85065C21.1727 8.84127 21.1821 9.03815 21.1727 9.7319ZM1.71021 11.0163C1.86021 11.0631 2.22584 11.1475 2.52584 11.2131C5.19771 11.7569 9.00396 11.635 11.0571 10.9319L11.5727 10.7538V11.1194C11.5727 11.485 11.5727 11.4944 11.4227 11.6256C11.029 11.9725 9.54771 12.31 7.86021 12.4506C7.11021 12.5069 5.40396 12.5069 4.62584 12.4506C3.23834 12.3381 1.91646 12.0756 1.32584 11.7756L0.997714 11.6163L0.988339 11.1756L0.978964 10.735L1.21334 10.8288C1.32584 10.885 1.56021 10.9694 1.71021 11.0163ZM21.1821 12.6006C21.1821 13.5944 21.2008 13.5381 20.7602 13.735C19.879 14.1288 18.3321 14.3725 16.4571 14.4288L15.4071 14.4569V14.3538C15.4071 14.0631 15.0602 13.6319 14.6571 13.435L14.4602 13.3413V12.91V12.4788L15.6227 12.4881C16.879 12.5069 17.8165 12.46 18.8196 12.31C19.5602 12.2069 20.479 11.9913 20.8258 11.8413C20.9571 11.785 21.0977 11.7288 21.1352 11.7288C21.1633 11.7381 21.1821 11.935 21.1821 12.6006ZM12.8477 12.3569C13.4571 12.4131 13.5602 12.4788 13.2977 12.6475C12.8946 12.91 11.8446 13.1819 10.6821 13.3319C9.80084 13.4538 7.47584 13.5475 7.55084 13.4631C7.56021 13.4538 7.88834 13.4069 8.27271 13.3694C9.96959 13.21 11.254 12.8819 11.8821 12.4506C12.0508 12.3381 12.1633 12.2819 12.2477 12.2913C12.3133 12.31 12.5758 12.3381 12.8477 12.3569ZM3.84771 13.96C4.40084 14.11 5.14146 14.2319 6.01334 14.335C6.97896 14.4475 9.39771 14.4475 10.3821 14.335C11.5727 14.2038 12.7352 13.9506 13.2696 13.7163L13.4571 13.6319V14.0256C13.4571 14.4944 13.4571 14.5038 12.9883 14.71C12.3602 14.9913 11.0665 15.2444 9.71646 15.3475C8.76959 15.4131 6.66959 15.3756 5.83521 15.2725C4.62584 15.1319 3.41646 14.8319 3.06959 14.5975C2.92896 14.4944 2.92896 14.4944 2.91021 14.0631L2.90084 13.6225L3.16334 13.735C3.30396 13.8006 3.61334 13.9038 3.84771 13.96ZM21.1821 15.0006C21.1821 15.3381 21.1727 15.385 21.079 15.4788C20.779 15.76 19.6727 16.0694 18.3133 16.2288C17.7883 16.2944 16.2883 16.3788 15.6883 16.3881H15.4071V15.8913V15.3944H16.2133C17.9477 15.3944 20.0383 15.0944 20.8727 14.7194C21.1821 14.5788 21.1821 14.5788 21.1821 15.0006ZM14.4602 15.9475C14.4602 16.3881 14.4227 16.4444 14.0008 16.6225C12.5477 17.2694 9.21021 17.5131 6.53834 17.1663C5.47896 17.035 4.39146 16.7538 4.00709 16.5194C3.85709 16.4256 3.84771 16.4069 3.84771 16.1631V15.91L4.33521 16.0131C5.57271 16.2756 7.30709 16.3975 9.28521 16.3694C11.4133 16.3319 13.0258 16.1163 14.0946 15.7038C14.254 15.6381 14.404 15.5913 14.4227 15.5819C14.4415 15.5725 14.4602 15.7319 14.4602 15.9475ZM2.91021 16.4163C2.91959 16.585 2.91959 16.735 2.91021 16.7444C2.90084 16.7631 2.26334 16.5663 2.11334 16.4913L1.98209 16.4256L2.11334 16.3506C2.27271 16.2663 2.71334 16.1163 2.81646 16.1163C2.88209 16.1069 2.90084 16.1631 2.91021 16.4163ZM2.41334 17.5694C3.21959 17.8319 4.29771 18.0288 5.75084 18.1694C6.94146 18.2913 10.504 18.2819 11.4602 18.1694C11.8352 18.1225 12.2196 18.0663 12.3321 18.0475C12.5196 18.0194 12.5196 18.0194 12.5196 18.1413C12.5196 18.3288 12.2571 18.5069 11.6665 18.6944C9.67896 19.3413 5.85396 19.4256 3.42584 18.8819C2.81646 18.7413 2.24459 18.5444 2.04771 18.4038C1.91646 18.31 1.91646 18.3006 1.91646 17.86C1.91646 17.6163 1.92584 17.41 1.93521 17.41C1.93521 17.4194 2.15084 17.485 2.41334 17.5694Z" fill="white"/>
</svg>
