<svg width="22" height="19" viewBox="0 0 22 19" fill="none" xmlns="http://www.w3.org/2000/svg">
<path d="M1.62705 12.4469C1.487 12.2818 1.36373 12.1315 1.25831 12C1.36373 11.8685 1.487 11.7182 1.62705 11.5531C2.16091 10.9237 2.93232 10.086 3.88208 9.25104C5.81389 7.55274 8.33091 6 11 6C13.6691 6 16.1861 7.55274 18.1179 9.25104C19.0677 10.086 19.8391 10.9237 20.3729 11.5531C20.513 11.7182 20.6363 11.8685 20.7417 12C20.6363 12.1315 20.513 12.2818 20.3729 12.4469C19.8391 13.0763 19.0677 13.914 18.1179 14.749C16.1861 16.4473 13.6691 18 11 18C8.33091 18 5.81389 16.4473 3.88208 14.749C2.93232 13.914 2.16091 13.0763 1.62705 12.4469Z" stroke="white" stroke-width="2" stroke-linecap="round"/>
<path d="M11 2V1" stroke="white" stroke-width="2" stroke-linecap="round"/>
<path d="M6 3.00006L5.35449 1.82446" stroke="white" stroke-width="2" stroke-linecap="round"/>
<path d="M16 3.00006L16.6455 1.82446" stroke="white" stroke-width="2" stroke-linecap="round"/>
<path d="M2.13086 6.06433L1 5" stroke="white" stroke-width="2" stroke-linecap="round"/>
<path d="M19.8691 6.06433L21 5" stroke="white" stroke-width="2" stroke-linecap="round"/>
<circle cx="11" cy="12" r="2" stroke="white" stroke-width="2" stroke-linecap="round"/>
</svg>
