<svg width="24" height="24" viewBox="0 0 24 24" fill="none" xmlns="http://www.w3.org/2000/svg">
<path d="M12 3C16.6326 3 20.4476 6.50005 20.9451 11H12H3.05493C3.55237 6.50005 7.36745 3 12 3ZM3.05493 13H12H20.9451C20.4476 17.5 16.6326 21 12 21C7.36745 21 3.55237 17.5 3.05493 13Z" stroke="white" stroke-width="2" stroke-linecap="round"/>
<path d="M18 7C16.5341 7.61323 14.3894 8 12 8C9.61062 8 7.46589 7.61323 6 7" stroke="white" stroke-width="2" stroke-linecap="round"/>
<path d="M6 17C7.46589 16.3868 9.61061 16 12 16C14.3894 16 16.5341 16.3868 18 17" stroke="white" stroke-width="2" stroke-linecap="round"/>
<path d="M12 21C11.2021 21 10.2106 20.3272 9.35889 18.6239C8.53713 16.9803 8 14.6398 8 12C8 9.36016 8.53713 7.01967 9.35889 5.37615C10.2106 3.67281 11.2021 3 12 3C12.7979 3 13.7894 3.67281 14.6411 5.37615C15.4629 7.01967 16 9.36016 16 12C16 14.6398 15.4629 16.9803 14.6411 18.6239C13.7894 20.3272 12.7979 21 12 21Z" stroke="white" stroke-width="2" stroke-linecap="round"/>
</svg>
